<?xml version="1.0" standalone="no"?>
<!DOCTYPE svg PUBLIC "-//W3C//DTD SVG 20010904//EN"
 "http://www.w3.org/TR/2001/REC-SVG-20010904/DTD/svg10.dtd">
<svg version="1.0" xmlns="http://www.w3.org/2000/svg"
 width="200.000000pt" height="200.000000pt" viewBox="0 0 200.000000 200.000000"
 preserveAspectRatio="xMidYMid meet">
<metadata>
Created by potrace 1.14, written by Peter Selinger 2001-2017
</metadata>
<g transform="translate(0.000000,200.000000) scale(0.100000,-0.100000)"
fill="#000000" stroke="none">
<path d="M845 1864 c-312 -69 -562 -313 -646 -629 -30 -113 -30 -288 -1 -407
36 -148 89 -246 202 -379 l57 -67 7 -118 c7 -124 19 -154 57 -154 11 0 66 23
123 52 l105 52 93 -19 c287 -60 565 17 770 213 180 173 268 377 268 624 -1
238 -78 425 -245 594 -107 108 -207 170 -345 216 -84 27 -111 31 -235 34 -101
3 -160 -1 -210 -12z m-149 -599 c18 -19 23 -31 19 -48 -9 -27 -33 -47 -59 -47
-52 0 -76 75 -34 104 31 22 45 20 74 -9z m682 9 c26 -18 29 -60 5 -86 -30 -33
-84 -17 -98 29 -4 17 1 29 19 48 29 29 43 31 74 9z m-338 -94 c18 -18 20 -33
20 -137 0 -128 -10 -153 -58 -153 -53 0 -62 22 -62 152 0 105 2 120 20 138 11
11 29 20 40 20 11 0 29 -9 40 -20z m-312 -399 c164 -124 395 -120 556 8 43 35
71 39 98 14 30 -27 23 -68 -19 -102 -53 -44 -160 -98 -229 -116 -161 -42 -379
9 -494 115 -44 40 -51 71 -23 102 25 27 53 22 111 -21z"/>
</g>
</svg>
